# xmcd CD database file
#
# Track frame offsets:
#	150
#	3458
#	14064
#	23917
#	31060
#	46935
#	65910
#	72593
#	83978
#	92811
#	109612
#	120074
#	137614
#	142953
#	146247
#	152895
#	154890
#	159972
#	165419
#	172558
#	185751
#	195548
#	204899
#	209848
#	218255
#	226857
#	230635
#	239618
#	246061
#	253212
#	259384
#	263274
#	264967
#	270316
#	286347
#	291578
#	298391
#	301521
#
# Disc length: 4273 seconds
#
# Revision: 2
# Processed by: cddbd v1.5.2PL0 Copyright (c) Steve Scherf et al.
# Submitted via: CDex 1.51
#
DISCID=2210af26
DTITLE=Del Tha Funkee Homosapien - The Mixtape (By Zac Hendrix)
DYEAR=2006
DGENRE=Hip-Hop
TTITLE0=Intro
TTITLE1=I've Been Watching You - At The Helm
TTITLE2=In and Out - Games Begin
TTITLE3=Press Rewind
TTITLE4=Help Me Out - Sleepin' On My Couch - If You Must - Powers That Be
TTITLE5=Catch A Bad One (A-Plus Remix) - Dynasty - Catch A Bad One
TTITLE6=School Of Hardknocks (Zee's 1210 Remix)
TTITLE7=Dr. Bombay
TTITLE8=Positive Contact - Positive Contact (Mario C Remix)
TTITLE9=Funk 'Em (Insult2Injury Remix)
TTITLE10=What Is A Booty? - Pumpin' It Up
TTITLE11=What Do You Do In The Dark? - Wrongplace - Wrongplace (Casual Remix)
TTITLE12=Rock The House
TTITLE13=Food Fight
TTITLE14=The P-Jays
TTITLE15=Clint Eastwood
TTITLE16=The World's Gone Mad
TTITLE17=Good Times - Check It Ooout
TTITLE18=Things You Can Do
TTITLE19=Take A Little Trip - Stress The World
TTITLE20=Phoney Phranchise (Domino Remix) - Listen To The Melody
TTITLE21=Time's Up
TTITLE22=Three Emcees
TTITLE23=Sunny Meadowz
TTITLE24=Soopa Feen
TTITLE25=Memory Loss - Dame Una Sola Noche Ara Amarte
TTITLE26=Repo Man - The Insurance Company
TTITLE27=Virus
TTITLE28=Eye Examination
TTITLE29=Undisputed Champs
TTITLE30=Mastermind (Interlude) - Algien
TTITLE31=A Little Something
TTITLE32=Thank Youse
TTITLE33=Love Is Worth
TTITLE34=Mr. Dobalina - Zilch
TTITLE35=Made In America (3 Mixes)
TTITLE36=Ahonetwo
TTITLE37=A Brand New Beginning (Unreleased Demo)
EXTD=YEAR: 2006
EXTT0=
EXTT1=
EXTT2=
EXTT3=
EXTT4=
EXTT5=
EXTT6=
EXTT7=
EXTT8=
EXTT9=
EXTT10=
EXTT11=
EXTT12=
EXTT13=
EXTT14=
EXTT15=
EXTT16=
EXTT17=
EXTT18=
EXTT19=
EXTT20=
EXTT21=
EXTT22=
EXTT23=
EXTT24=
EXTT25=
EXTT26=
EXTT27=
EXTT28=
EXTT29=
EXTT30=
EXTT31=
EXTT32=
EXTT33=
EXTT34=
EXTT35=
EXTT36=
EXTT37=
PLAYORDER=
